{
    "asset" : {
        "generator" : "Khronos glTF Blender I/O v1.7.33",
        "version" : "2.0"
    },
    "scene" : 0,
    "scenes" : [
        {
            "name" : "Scene",
            "nodes" : [
                16
            ]
        }
    ],
    "nodes" : [
        {
            "mesh" : 0,
            "name" : "arm.003"
        },
        {
            "mesh" : 1,
            "name" : "body"
        },
        {
            "mesh" : 2,
            "name" : "eye"
        },
        {
            "mesh" : 3,
            "name" : "foot"
        },
        {
            "mesh" : 4,
            "name" : "mouse"
        },
        {
            "name" : "lowerArm.L",
            "rotation" : [
                0.14016853272914886,
                -0.03015376813709736,
                -0.20056721568107605,
                0.9691318273544312
            ],
            "scale" : [
                1,
                1,
                0.9999999403953552
            ],
            "translation" : [
                7.543424374034657e-08,
                0.9647314548492432,
                4.045142532049795e-08
            ]
        },
        {
            "children" : [
                5
            ],
            "name" : "upperArm.L",
            "rotation" : [
                -0.0014716425212100148,
                -0.02978549338877201,
                -0.9977096915245056,
                0.060712721198797226
            ],
            "scale" : [
                0.9999947547912598,
                1,
                0.999998927116394
            ],
            "translation" : [
                0.9640253782272339,
                1.68623948097229,
                -0.1831110715866089
            ]
        },
        {
            "name" : "head",
            "rotation" : [
                -0.06566527485847473,
                -1.1895201623701723e-07,
                -7.82791165221397e-09,
                0.9978417158126831
            ],
            "scale" : [
                1,
                0.9999998807907104,
                1
            ],
            "translation" : [
                -8.337344452791131e-15,
                1.8752286434173584,
                3.869464393346789e-08
            ]
        },
        {
            "name" : "lowerFoot.L",
            "rotation" : [
                -6.752134851240044e-08,
                -3.7277089859344414e-08,
                0.19779539108276367,
                0.9802433848381042
            ],
            "scale" : [
                1.0000001192092896,
                1.0000001192092896,
                1
            ],
            "translation" : [
                -1.688545481215442e-08,
                0.3377053737640381,
                -7.153630576794967e-08
            ]
        },
        {
            "children" : [
                8
            ],
            "name" : "uperFoot.L",
            "rotation" : [
                0.7019695043563843,
                0.08507935702800751,
                0.7019699811935425,
                0.08507918566465378
            ],
            "scale" : [
                1.000000238418579,
                1.000000238418579,
                1.0000019073486328
            ],
            "translation" : [
                0.2931806147098541,
                0.06784844398498535,
                -0.0036742272786796093
            ]
        },
        {
            "name" : "lowerArm.R",
            "rotation" : [
                0.1401682198047638,
                0.030153699219226837,
                0.20056693255901337,
                0.9691319465637207
            ],
            "scale" : [
                1.0000001192092896,
                1.000000238418579,
                1
            ],
            "translation" : [
                -1.7975638755274304e-08,
                0.9647312164306641,
                -6.787762885096527e-08
            ]
        },
        {
            "children" : [
                10
            ],
            "name" : "upperArm.R",
            "rotation" : [
                -0.0014723638305440545,
                0.029785506427288055,
                0.9977096915245056,
                0.06071266159415245
            ],
            "scale" : [
                0.9999967217445374,
                1.0000001192092896,
                0.9999991655349731
            ],
            "translation" : [
                -0.9640253782272339,
                1.6862399578094482,
                -0.1831115335226059
            ]
        },
        {
            "name" : "lowerFoot.R",
            "rotation" : [
                -8.220541047876395e-08,
                4.2240174025209853e-08,
                -0.19779539108276367,
                0.9802433848381042
            ],
            "scale" : [
                1.0000001192092896,
                1.0000001192092896,
                0.9999998807907104
            ],
            "translation" : [
                -1.928060555655975e-08,
                0.3377052843570709,
                -5.988167117720877e-08
            ]
        },
        {
            "children" : [
                12
            ],
            "name" : "uperFoot.R",
            "rotation" : [
                0.7019697427749634,
                -0.08507931977510452,
                -0.7019698023796082,
                0.0850791484117508
            ],
            "scale" : [
                1.000000238418579,
                1.000000238418579,
                1.000001311302185
            ],
            "translation" : [
                -0.2931806147098541,
                0.06784844398498535,
                -0.0036743467207998037
            ]
        },
        {
            "children" : [
                6,
                7,
                9,
                11,
                13
            ],
            "name" : "body",
            "rotation" : [
                0.7259735465049744,
                8.198295375905218e-08,
                8.654280492237376e-08,
                0.6877226829528809
            ],
            "translation" : [
                8.88178631458362e-16,
                -3.7198399915894242e-09,
                0.6153218746185303
            ]
        },
        {
            "children" : [
                14
            ],
            "name" : "root",
            "rotation" : [
                -0.7071068286895752,
                0,
                0,
                0.7071068286895752
            ]
        },
        {
            "children" : [
                0,
                1,
                2,
                3,
                4,
                15
            ],
            "name" : "Armature"
        }
    ],
    "materials" : [
        {
            "doubleSided" : true,
            "name" : "foot",
            "pbrMetallicRoughness" : {}
        },
        {
            "doubleSided" : true,
            "name" : "body",
            "pbrMetallicRoughness" : {}
        },
        {
            "doubleSided" : true,
            "name" : "line",
            "pbrMetallicRoughness" : {}
        }
    ],
    "meshes" : [
        {
            "name" : "BezierCurve.002",
            "primitives" : [
                {
                    "attributes" : {
                        "POSITION" : 0,
                        "TEXCOORD_0" : 1
                    },
                    "indices" : 2,
                    "material" : 0
                }
            ]
        },
        {
            "name" : "Circle.001",
            "primitives" : [
                {
                    "attributes" : {
                        "POSITION" : 3,
                        "TEXCOORD_0" : 4
                    },
                    "indices" : 5,
                    "material" : 1
                }
            ]
        },
        {
            "name" : "Circle.002",
            "primitives" : [
                {
                    "attributes" : {
                        "POSITION" : 6,
                        "TEXCOORD_0" : 7
                    },
                    "indices" : 8,
                    "material" : 2
                }
            ]
        },
        {
            "name" : "Cylinder",
            "primitives" : [
                {
                    "attributes" : {
                        "POSITION" : 9,
                        "TEXCOORD_0" : 10
                    },
                    "indices" : 11,
                    "material" : 0
                }
            ]
        },
        {
            "name" : "Cube.001",
            "primitives" : [
                {
                    "attributes" : {
                        "POSITION" : 12
                    },
                    "indices" : 13,
                    "material" : 2
                }
            ]
        }
    ],
    "accessors" : [
        {
            "bufferView" : 0,
            "componentType" : 5126,
            "count" : 2043,
            "max" : [
                1.2049859762191772,
                2.5644540786743164,
                0.30475467443466187
            ],
            "min" : [
                -1.2049859762191772,
                0.4129280745983124,
                -0.28046879172325134
            ],
            "type" : "VEC3"
        },
        {
            "bufferView" : 1,
            "componentType" : 5126,
            "count" : 2043,
            "type" : "VEC2"
        },
        {
            "bufferView" : 2,
            "componentType" : 5123,
            "count" : 10752,
            "type" : "SCALAR"
        },
        {
            "bufferView" : 3,
            "componentType" : 5126,
            "count" : 2498,
            "max" : [
                1.580590009689331,
                4.600792407989502,
                1.1113030910491943
            ],
            "min" : [
                -1.580590009689331,
                0.45455271005630493,
                -1.1113030910491943
            ],
            "type" : "VEC3"
        },
        {
            "bufferView" : 4,
            "componentType" : 5126,
            "count" : 2498,
            "type" : "VEC2"
        },
        {
            "bufferView" : 5,
            "componentType" : 5123,
            "count" : 14976,
            "type" : "SCALAR"
        },
        {
            "bufferView" : 6,
            "componentType" : 5126,
            "count" : 196,
            "max" : [
                0.5942637920379639,
                4.080043792724609,
                0.871464729309082
            ],
            "min" : [
                -0.5942637920379639,
                3.804300308227539,
                0.6537165641784668
            ],
            "type" : "VEC3"
        },
        {
            "bufferView" : 7,
            "componentType" : 5126,
            "count" : 196,
            "type" : "VEC2"
        },
        {
            "bufferView" : 8,
            "componentType" : 5123,
            "count" : 1152,
            "type" : "SCALAR"
        },
        {
            "bufferView" : 9,
            "componentType" : 5126,
            "count" : 843,
            "max" : [
                0.4623699188232422,
                0.8116932511329651,
                0.1953621804714203
            ],
            "min" : [
                -0.4623698890209198,
                -0.009249508380889893,
                -0.19536207616329193
            ],
            "type" : "VEC3"
        },
        {
            "bufferView" : 10,
            "componentType" : 5126,
            "count" : 843,
            "type" : "VEC2"
        },
        {
            "bufferView" : 11,
            "componentType" : 5123,
            "count" : 4608,
            "type" : "SCALAR"
        },
        {
            "bufferView" : 12,
            "componentType" : 5126,
            "count" : 3408,
            "max" : [
                1.3153245449066162,
                3.4286246299743652,
                1.1440882682800293
            ],
            "min" : [
                -1.3156304359436035,
                3.0795114040374756,
                0.5970373153686523
            ],
            "type" : "VEC3"
        },
        {
            "bufferView" : 13,
            "componentType" : 5123,
            "count" : 20448,
            "type" : "SCALAR"
        }
    ],
    "bufferViews" : [
        {
            "buffer" : 0,
            "byteLength" : 24516,
            "byteOffset" : 0
        },
        {
            "buffer" : 0,
            "byteLength" : 16344,
            "byteOffset" : 24516
        },
        {
            "buffer" : 0,
            "byteLength" : 21504,
            "byteOffset" : 40860
        },
        {
            "buffer" : 0,
            "byteLength" : 29976,
            "byteOffset" : 62364
        },
        {
            "buffer" : 0,
            "byteLength" : 19984,
            "byteOffset" : 92340
        },
        {
            "buffer" : 0,
            "byteLength" : 29952,
            "byteOffset" : 112324
        },
        {
            "buffer" : 0,
            "byteLength" : 2352,
            "byteOffset" : 142276
        },
        {
            "buffer" : 0,
            "byteLength" : 1568,
            "byteOffset" : 144628
        },
        {
            "buffer" : 0,
            "byteLength" : 2304,
            "byteOffset" : 146196
        },
        {
            "buffer" : 0,
            "byteLength" : 10116,
            "byteOffset" : 148500
        },
        {
            "buffer" : 0,
            "byteLength" : 6744,
            "byteOffset" : 158616
        },
        {
            "buffer" : 0,
            "byteLength" : 9216,
            "byteOffset" : 165360
        },
        {
            "buffer" : 0,
            "byteLength" : 40896,
            "byteOffset" : 174576
        },
        {
            "buffer" : 0,
            "byteLength" : 40896,
            "byteOffset" : 215472
        }
    ],
    "buffers" : [
        {
            "byteLength" : 256368,
            "uri" : "data:application/octet-stream;base64,"
        }
    ]
}
