{
    "asset" : {
        "generator" : "Khronos glTF Blender I/O v1.7.33",
        "version" : "2.0"
    },
    "scene" : 0,
    "scenes" : [
        {
            "name" : "Scene",
            "nodes" : [
                17
            ]
        }
    ],
    "nodes" : [
        {
            "mesh" : 0,
            "name" : "arm.004"
        },
        {
            "mesh" : 1,
            "name" : "body.002"
        },
        {
            "mesh" : 2,
            "name" : "eye.002"
        },
        {
            "mesh" : 3,
            "name" : "foot.002"
        },
        {
            "mesh" : 4,
            "name" : "mouse.003"
        },
        {
            "mesh" : 5,
            "name" : "tooth.002"
        },
        {
            "name" : "lowerArm.L",
            "rotation" : [
                0.14016853272914886,
                -0.03015376813709736,
                -0.20056721568107605,
                0.9691318273544312
            ],
            "scale" : [
                1,
                1,
                0.9999999403953552
            ],
            "translation" : [
                7.543424374034657e-08,
                0.9647314548492432,
                4.045142532049795e-08
            ]
        },
        {
            "children" : [
                6
            ],
            "name" : "upperArm.L",
            "rotation" : [
                -0.0014716425212100148,
                -0.02978549338877201,
                -0.9977096915245056,
                0.060712721198797226
            ],
            "scale" : [
                0.9999947547912598,
                1,
                0.999998927116394
            ],
            "translation" : [
                0.9640253782272339,
                1.68623948097229,
                -0.1831110715866089
            ]
        },
        {
            "name" : "head",
            "rotation" : [
                -0.06566527485847473,
                -1.1895201623701723e-07,
                -7.82791165221397e-09,
                0.9978417158126831
            ],
            "scale" : [
                1,
                0.9999998807907104,
                1
            ],
            "translation" : [
                -8.337344452791131e-15,
                1.8752286434173584,
                3.869464393346789e-08
            ]
        },
        {
            "name" : "lowerFoot.L",
            "rotation" : [
                -6.752134851240044e-08,
                -3.7277089859344414e-08,
                0.19779539108276367,
                0.9802433848381042
            ],
            "scale" : [
                1.0000001192092896,
                1.0000001192092896,
                1
            ],
            "translation" : [
                -1.688545481215442e-08,
                0.3377053737640381,
                -7.153630576794967e-08
            ]
        },
        {
            "children" : [
                9
            ],
            "name" : "uperFoot.L",
            "rotation" : [
                0.7019695043563843,
                0.08507935702800751,
                0.7019699811935425,
                0.08507918566465378
            ],
            "scale" : [
                1.000000238418579,
                1.000000238418579,
                1.0000019073486328
            ],
            "translation" : [
                0.2931806147098541,
                0.06784844398498535,
                -0.0036742272786796093
            ]
        },
        {
            "name" : "lowerArm.R",
            "rotation" : [
                0.1401682198047638,
                0.030153699219226837,
                0.20056693255901337,
                0.9691319465637207
            ],
            "scale" : [
                1.0000001192092896,
                1.000000238418579,
                1
            ],
            "translation" : [
                -1.7975638755274304e-08,
                0.9647312164306641,
                -6.787762885096527e-08
            ]
        },
        {
            "children" : [
                11
            ],
            "name" : "upperArm.R",
            "rotation" : [
                -0.0014723638305440545,
                0.029785506427288055,
                0.9977096915245056,
                0.06071266159415245
            ],
            "scale" : [
                0.9999967217445374,
                1.0000001192092896,
                0.9999991655349731
            ],
            "translation" : [
                -0.9640253782272339,
                1.6862399578094482,
                -0.1831115335226059
            ]
        },
        {
            "name" : "lowerFoot.R",
            "rotation" : [
                -8.220541047876395e-08,
                4.2240174025209853e-08,
                -0.19779539108276367,
                0.9802433848381042
            ],
            "scale" : [
                1.0000001192092896,
                1.0000001192092896,
                0.9999998807907104
            ],
            "translation" : [
                -1.928060555655975e-08,
                0.3377052843570709,
                -5.988167117720877e-08
            ]
        },
        {
            "children" : [
                13
            ],
            "name" : "uperFoot.R",
            "rotation" : [
                0.7019697427749634,
                -0.08507931977510452,
                -0.7019698023796082,
                0.0850791484117508
            ],
            "scale" : [
                1.000000238418579,
                1.000000238418579,
                1.000001311302185
            ],
            "translation" : [
                -0.2931806147098541,
                0.06784844398498535,
                -0.0036743467207998037
            ]
        },
        {
            "children" : [
                7,
                8,
                10,
                12,
                14
            ],
            "name" : "body",
            "rotation" : [
                0.7259735465049744,
                8.198295375905218e-08,
                8.654280492237376e-08,
                0.6877226829528809
            ],
            "translation" : [
                8.88178631458362e-16,
                -3.7198399915894242e-09,
                0.6153218746185303
            ]
        },
        {
            "children" : [
                15
            ],
            "name" : "root",
            "rotation" : [
                -0.7071068286895752,
                0,
                0,
                0.7071068286895752
            ]
        },
        {
            "children" : [
                0,
                1,
                2,
                3,
                4,
                5,
                16
            ],
            "name" : "Armature"
        }
    ],
    "materials" : [
        {
            "doubleSided" : true,
            "name" : "texed",
            "pbrMetallicRoughness" : {
                "baseColorTexture" : {
                    "index" : 0
                },
                "metallicFactor" : 0
            }
        }
    ],
    "meshes" : [
        {
            "name" : "BezierCurve.003",
            "primitives" : [
                {
                    "attributes" : {
                        "POSITION" : 0,
                        "NORMAL" : 1,
                        "TEXCOORD_0" : 2
                    },
                    "indices" : 3,
                    "material" : 0
                }
            ]
        },
        {
            "name" : "Circle.007",
            "primitives" : [
                {
                    "attributes" : {
                        "POSITION" : 4,
                        "NORMAL" : 5,
                        "TEXCOORD_0" : 6
                    },
                    "indices" : 7,
                    "material" : 0
                }
            ]
        },
        {
            "name" : "Circle.008",
            "primitives" : [
                {
                    "attributes" : {
                        "POSITION" : 8,
                        "NORMAL" : 9,
                        "TEXCOORD_0" : 10
                    },
                    "indices" : 11,
                    "material" : 0
                }
            ]
        },
        {
            "name" : "Cylinder.002",
            "primitives" : [
                {
                    "attributes" : {
                        "POSITION" : 12,
                        "NORMAL" : 13,
                        "TEXCOORD_0" : 14
                    },
                    "indices" : 15,
                    "material" : 0
                }
            ]
        },
        {
            "name" : "Cube.004",
            "primitives" : [
                {
                    "attributes" : {
                        "POSITION" : 16,
                        "NORMAL" : 17,
                        "TEXCOORD_0" : 18
                    },
                    "indices" : 19,
                    "material" : 0
                }
            ]
        },
        {
            "name" : "Circle.009",
            "primitives" : [
                {
                    "attributes" : {
                        "POSITION" : 20,
                        "NORMAL" : 21,
                        "TEXCOORD_0" : 22
                    },
                    "indices" : 23,
                    "material" : 0
                }
            ]
        }
    ],
    "textures" : [
        {
            "sampler" : 0,
            "source" : 0
        }
    ],
    "images" : [
        {
            "bufferView" : 4,
            "mimeType" : "image/png",
            "name" : "nameko.diff"
        }
    ],
    "accessors" : [
        {
            "bufferView" : 0,
            "componentType" : 5126,
            "count" : 1944,
            "max" : [
                1.2049859762191772,
                2.616061210632324,
                0.30475467443466187
            ],
            "min" : [
                -1.2049859762191772,
                0.4129280745983124,
                -0.28046882152557373
            ],
            "type" : "VEC3"
        },
        {
            "bufferView" : 1,
            "componentType" : 5126,
            "count" : 1944,
            "type" : "VEC3"
        },
        {
            "bufferView" : 2,
            "componentType" : 5126,
            "count" : 1944,
            "type" : "VEC2"
        },
        {
            "bufferView" : 3,
            "componentType" : 5123,
            "count" : 9984,
            "type" : "SCALAR"
        },
        {
            "bufferView" : 5,
            "componentType" : 5126,
            "count" : 2919,
            "max" : [
                1.580590009689331,
                4.600792407989502,
                1.1113030910491943
            ],
            "min" : [
                -1.580590009689331,
                0.45455271005630493,
                -1.1113030910491943
            ],
            "type" : "VEC3"
        },
        {
            "bufferView" : 6,
            "componentType" : 5126,
            "count" : 2919,
            "type" : "VEC3"
        },
        {
            "bufferView" : 7,
            "componentType" : 5126,
            "count" : 2919,
            "type" : "VEC2"
        },
        {
            "bufferView" : 8,
            "componentType" : 5123,
            "count" : 14976,
            "type" : "SCALAR"
        },
        {
            "bufferView" : 9,
            "componentType" : 5126,
            "count" : 224,
            "max" : [
                0.5942637920379639,
                4.080043792724609,
                0.871464729309082
            ],
            "min" : [
                -0.5942637920379639,
                3.804300308227539,
                0.6537165641784668
            ],
            "type" : "VEC3"
        },
        {
            "bufferView" : 10,
            "componentType" : 5126,
            "count" : 224,
            "type" : "VEC3"
        },
        {
            "bufferView" : 11,
            "componentType" : 5126,
            "count" : 224,
            "type" : "VEC2"
        },
        {
            "bufferView" : 12,
            "componentType" : 5123,
            "count" : 1152,
            "type" : "SCALAR"
        },
        {
            "bufferView" : 13,
            "componentType" : 5126,
            "count" : 751,
            "max" : [
                0.4678454101085663,
                0.8116933107376099,
                0.202620267868042
            ],
            "min" : [
                -0.4678453207015991,
                -0.009249508380889893,
                -0.20262014865875244
            ],
            "type" : "VEC3"
        },
        {
            "bufferView" : 14,
            "componentType" : 5126,
            "count" : 751,
            "type" : "VEC3"
        },
        {
            "bufferView" : 15,
            "componentType" : 5126,
            "count" : 751,
            "type" : "VEC2"
        },
        {
            "bufferView" : 16,
            "componentType" : 5123,
            "count" : 3840,
            "type" : "SCALAR"
        },
        {
            "bufferView" : 17,
            "componentType" : 5126,
            "count" : 4045,
            "max" : [
                1.3153245449066162,
                3.4286248683929443,
                1.1440882682800293
            ],
            "min" : [
                -1.3156304359436035,
                3.0795111656188965,
                0.5970373153686523
            ],
            "type" : "VEC3"
        },
        {
            "bufferView" : 18,
            "componentType" : 5126,
            "count" : 4045,
            "type" : "VEC3"
        },
        {
            "bufferView" : 19,
            "componentType" : 5126,
            "count" : 4045,
            "type" : "VEC2"
        },
        {
            "bufferView" : 20,
            "componentType" : 5123,
            "count" : 20448,
            "type" : "SCALAR"
        },
        {
            "bufferView" : 21,
            "componentType" : 5126,
            "count" : 208,
            "max" : [
                0.40715858340263367,
                3.392080545425415,
                1.1262654066085815
            ],
            "min" : [
                -0.4071585536003113,
                3.122401714324951,
                1.075937271118164
            ],
            "type" : "VEC3"
        },
        {
            "bufferView" : 22,
            "componentType" : 5126,
            "count" : 208,
            "type" : "VEC3"
        },
        {
            "bufferView" : 23,
            "componentType" : 5126,
            "count" : 208,
            "type" : "VEC2"
        },
        {
            "bufferView" : 24,
            "componentType" : 5123,
            "count" : 312,
            "type" : "SCALAR"
        }
    ],
    "bufferViews" : [
        {
            "buffer" : 0,
            "byteLength" : 23328,
            "byteOffset" : 0
        },
        {
            "buffer" : 0,
            "byteLength" : 23328,
            "byteOffset" : 23328
        },
        {
            "buffer" : 0,
            "byteLength" : 15552,
            "byteOffset" : 46656
        },
        {
            "buffer" : 0,
            "byteLength" : 19968,
            "byteOffset" : 62208
        },
        {
            "buffer" : 0,
            "byteLength" : 485958,
            "byteOffset" : 82176
        },
        {
            "buffer" : 0,
            "byteLength" : 35028,
            "byteOffset" : 568136
        },
        {
            "buffer" : 0,
            "byteLength" : 35028,
            "byteOffset" : 603164
        },
        {
            "buffer" : 0,
            "byteLength" : 23352,
            "byteOffset" : 638192
        },
        {
            "buffer" : 0,
            "byteLength" : 29952,
            "byteOffset" : 661544
        },
        {
            "buffer" : 0,
            "byteLength" : 2688,
            "byteOffset" : 691496
        },
        {
            "buffer" : 0,
            "byteLength" : 2688,
            "byteOffset" : 694184
        },
        {
            "buffer" : 0,
            "byteLength" : 1792,
            "byteOffset" : 696872
        },
        {
            "buffer" : 0,
            "byteLength" : 2304,
            "byteOffset" : 698664
        },
        {
            "buffer" : 0,
            "byteLength" : 9012,
            "byteOffset" : 700968
        },
        {
            "buffer" : 0,
            "byteLength" : 9012,
            "byteOffset" : 709980
        },
        {
            "buffer" : 0,
            "byteLength" : 6008,
            "byteOffset" : 718992
        },
        {
            "buffer" : 0,
            "byteLength" : 7680,
            "byteOffset" : 725000
        },
        {
            "buffer" : 0,
            "byteLength" : 48540,
            "byteOffset" : 732680
        },
        {
            "buffer" : 0,
            "byteLength" : 48540,
            "byteOffset" : 781220
        },
        {
            "buffer" : 0,
            "byteLength" : 32360,
            "byteOffset" : 829760
        },
        {
            "buffer" : 0,
            "byteLength" : 40896,
            "byteOffset" : 862120
        },
        {
            "buffer" : 0,
            "byteLength" : 2496,
            "byteOffset" : 903016
        },
        {
            "buffer" : 0,
            "byteLength" : 2496,
            "byteOffset" : 905512
        },
        {
            "buffer" : 0,
            "byteLength" : 1664,
            "byteOffset" : 908008
        },
        {
            "buffer" : 0,
            "byteLength" : 624,
            "byteOffset" : 909672
        }
    ],
    "samplers" : [
        {
            "magFilter" : 9729,
            "minFilter" : 9987
        }
    ],
    "buffers" : [
        {
            "byteLength" : 910296,
            "uri" : "data:application/octet-stream;base64,"
        }
    ]
}
